<svg width="16" height="16" viewBox="0 0 16 16" fill="none" xmlns="http://www.w3.org/2000/svg">
<path d="M6 6H10V10H6V6Z" fill="#FF5658"/>
<path d="M13.3333 4.00004C13.3333 3.26671 12.7333 2.66671 12 2.66671H10.6667V1.33337H9.33334V2.66671H6.66668V1.33337H5.33334V2.66671H4.00001C3.26668 2.66671 2.66668 3.26671 2.66668 4.00004V5.33337H1.33334V6.66671H2.66668V9.33337H1.33334V10.6667H2.66668V12C2.66668 12.7334 3.26668 13.3334 4.00001 13.3334H5.33334V14.6667H6.66668V13.3334H9.33334V14.6667H10.6667V13.3334H12C12.7333 13.3334 13.3333 12.7334 13.3333 12V10.6667H14.6667V9.33337H13.3333V6.66671H14.6667V5.33337H13.3333V4.00004ZM4.00001 12V4.00004H12V12H4.00001Z" fill="#FF5658"/>
</svg>
