<svg width="12" height="14" viewBox="0 0 12 14" fill="none" xmlns="http://www.w3.org/2000/svg">
<path fill-rule="evenodd" clip-rule="evenodd" d="M1.78137 1.72945C2.90254 0.624699 4.41229 0.0037566 5.98629 1.69891e-05C7.56029 -0.00372262 9.07297 0.610039 10.1994 1.70945H10.2007L10.222 1.72945C12.5854 4.05412 12.59 7.78812 10.25 10.0895L6.46937 13.8081C6.34467 13.9309 6.17669 13.9997 6.00171 13.9997C5.82672 13.9997 5.65875 13.9309 5.53404 13.8081L1.75337 10.0895C1.19833 9.5468 0.757302 8.89871 0.456203 8.18324C0.155104 7.46778 0 6.69936 0 5.92312C0 5.14688 0.155104 4.37846 0.456203 3.66299C0.757302 2.94753 1.19833 2.29944 1.75337 1.75679L1.78137 1.72945ZM6.00004 3.33279C5.7374 3.33279 5.47733 3.38452 5.23467 3.48503C4.99202 3.58554 4.77154 3.73286 4.58583 3.91857C4.40011 4.10429 4.25279 4.32477 4.15228 4.56742C4.05177 4.81007 4.00004 5.07014 4.00004 5.33279C4.00004 5.59543 4.05177 5.8555 4.15228 6.09815C4.25279 6.3408 4.40011 6.56128 4.58583 6.747C4.77154 6.93272 4.99202 7.08004 5.23467 7.18054C5.47733 7.28105 5.7374 7.33279 6.00004 7.33279C6.53047 7.33279 7.03918 7.12207 7.41425 6.747C7.78933 6.37193 8.00004 5.86322 8.00004 5.33279C8.00004 4.80235 7.78933 4.29364 7.41425 3.91857C7.03918 3.5435 6.53047 3.33279 6.00004 3.33279Z" fill="#FF5658"/>
</svg>
