<svg width="36" height="36" viewBox="0 0 36 36" fill="none" xmlns="http://www.w3.org/2000/svg">
<path d="M18 36C27.9411 36 36 27.9411 36 18C36 8.05886 27.9411 0 18 0C8.05887 0 0 8.05886 0 18C0 27.9411 8.05887 36 18 36Z" fill="#333333"/>
<path d="M13.2079 6.50996C11.9767 6.56811 11.1359 6.76452 10.4008 7.0533C9.64011 7.34973 8.99534 7.74759 8.35378 8.39136C7.71223 9.03513 7.31719 9.68029 7.02277 10.4422C6.73782 11.1787 6.54483 12.0203 6.49049 13.2521C6.43616 14.4839 6.42409 14.88 6.43012 18.0223C6.43616 21.1647 6.45005 21.5586 6.50981 22.793C6.56858 24.024 6.76438 24.8646 7.05316 25.5997C7.34999 26.3604 7.74745 27.005 8.39142 27.6467C9.03539 28.2885 9.68016 28.6825 10.4441 28.9775C11.18 29.2619 12.0218 29.4559 13.2534 29.5098C14.485 29.5637 14.8814 29.5762 18.023 29.5702C21.1644 29.5641 21.56 29.5503 22.7942 29.4917C24.0284 29.4331 24.8646 29.2359 25.6001 28.9485C26.3608 28.6509 27.0058 28.2543 27.6471 27.6099C28.2885 26.9655 28.6833 26.3199 28.9773 25.5576C29.2625 24.8217 29.4561 23.9799 29.5096 22.7493C29.5636 21.5141 29.5762 21.1199 29.5702 17.9779C29.5642 14.8359 29.5501 14.4421 29.4915 13.2081C29.4329 11.974 29.2369 11.1361 28.9484 10.4003C28.6509 9.63964 28.2541 8.99547 27.6103 8.35331C26.9665 7.71115 26.3204 7.31652 25.5583 7.02311C24.8219 6.73815 23.9805 6.54395 22.7489 6.49082C21.5173 6.43749 21.1209 6.42401 17.9783 6.43004C14.8353 6.43628 14.4421 6.44958 13.2079 6.50996ZM13.3429 27.4284C12.2148 27.3793 11.6022 27.1919 11.1939 27.0349C10.6534 26.8267 10.2682 26.5749 9.86128 26.172C9.45437 25.7691 9.20443 25.3825 8.99333 24.8432C8.83475 24.4349 8.64377 23.8231 8.59105 22.6948C8.53369 21.4754 8.52162 21.1092 8.51497 18.0199C8.50833 14.9305 8.52001 14.5648 8.57354 13.3451C8.62164 12.2178 8.8102 11.6046 8.96696 11.1965C9.17525 10.6551 9.42619 10.2707 9.82988 9.86404C10.2338 9.45733 10.6191 9.20697 11.1591 8.99587C11.5668 8.83669 12.1788 8.64734 13.3065 8.59361C14.5268 8.53585 14.8925 8.52417 17.9813 8.51753C21.0702 8.51089 21.4368 8.52236 22.6576 8.57609C23.7849 8.6252 24.3983 8.81194 24.806 8.96951C25.347 9.1778 25.7317 9.42796 26.1384 9.83245C26.5451 10.2369 26.7957 10.6209 27.0068 11.162C27.1662 11.5687 27.3555 12.1803 27.4089 13.3087C27.467 14.529 27.4801 14.8949 27.4857 17.9835C27.4914 21.0722 27.4805 21.439 27.427 22.6583C27.3777 23.7865 27.1907 24.3993 27.0335 24.808C26.8253 25.3483 26.5741 25.7337 26.17 26.1402C25.7659 26.5467 25.3812 26.7971 24.841 27.0082C24.4337 27.1672 23.8211 27.3569 22.6942 27.4107C21.4739 27.468 21.1082 27.4801 18.0182 27.4867C14.9281 27.4934 14.5633 27.4811 13.3429 27.4284ZM22.7763 11.8159C22.7775 12.5828 23.4004 13.2034 24.1671 13.2022C24.934 13.201 25.5546 12.5782 25.5534 11.8115C25.5522 11.0445 24.9294 10.4239 24.1624 10.4251C23.3957 10.4265 22.7749 11.0491 22.7763 11.8159ZM12.0588 18.0119C12.0653 21.2935 14.7305 23.9479 18.0113 23.9417C21.2924 23.9354 23.9483 21.2706 23.9421 17.9887C23.9359 14.7071 21.27 12.0521 17.9886 12.0586C14.7072 12.065 12.0526 14.7306 12.0588 18.0119ZM14.1431 18.0077C14.1389 15.8773 15.8623 14.147 17.9926 14.1428C20.1229 14.1386 21.8532 15.8622 21.8574 17.9924C21.8617 20.1227 20.138 21.853 18.0079 21.8572C15.8778 21.8616 14.1475 20.1378 14.1431 18.0077Z" fill="white"/>
</svg>
