<svg width="36" height="36" viewBox="0 0 36 36" fill="none" xmlns="http://www.w3.org/2000/svg">
<path d="M36 17.9998C36 27.2028 29.093 34.7915 20.1801 35.8681V23.5006H25.0494L26.0596 17.9998H20.1801V16.0544C20.1801 13.1476 21.3205 12.0296 24.2719 12.0296C25.1892 12.0296 25.9272 12.0519 26.3519 12.0973V7.11055C25.5471 6.88725 23.5793 6.66354 22.4387 6.66354C16.4238 6.66354 13.6511 9.50324 13.6511 15.6297V18H9.93952V23.5008H13.6511V35.4702C5.81111 33.5247 0 26.442 0 18C0 8.05893 8.05829 4.46865e-09 18 4.46865e-09C27.9411 -0.000219126 36 8.05872 36 17.9998Z" fill="#333333"/>
<path d="M20.1796 16.0541V17.9996H26.059L25.0489 23.5004H20.1796V35.8679C19.4645 35.9542 18.7375 35.9996 17.9994 35.9996C16.4997 35.9996 15.0432 35.8153 13.6506 35.4697V23.5004H9.93896V17.9996H13.6506V15.6292C13.6506 9.50279 16.4232 6.66309 22.4381 6.66309C23.5787 6.66309 25.5463 6.88705 26.3514 7.11012V12.0969C25.9265 12.0515 25.1887 12.0292 24.2714 12.0292C21.3201 12.0294 20.1796 13.1476 20.1796 16.0541Z" fill="white"/>
</svg>
