<svg width="14" height="11" viewBox="0 0 14 11" fill="none" xmlns="http://www.w3.org/2000/svg">
<path d="M13.3333 2.35645V8.66645C13.3334 9.17659 13.1385 9.66745 12.7885 10.0386C12.4385 10.4098 11.9599 10.6332 11.4507 10.6631L11.3333 10.6664H2C1.48986 10.6665 0.99899 10.4716 0.627826 10.1216C0.256662 9.77162 0.0332617 9.29304 0.00333341 8.78378L0 8.66645V2.35645L6.29667 6.55445L6.374 6.59845C6.46514 6.64297 6.56523 6.66612 6.66667 6.66612C6.7681 6.66612 6.8682 6.64297 6.95933 6.59845L7.03667 6.55445L13.3333 2.35645Z" fill="#FF5658"/>
<path d="M11.3334 0C12.0534 0 12.6847 0.38 13.0367 0.951333L6.66669 5.198L0.296692 0.951333C0.463887 0.679882 0.693552 0.452334 0.96654 0.28766C1.23953 0.122986 1.54793 0.0259582 1.86603 0.00466665L2.00003 0H11.3334Z" fill="#FF5658"/>
</svg>
