<svg width="37" height="26" viewBox="0 0 37 26" fill="none" xmlns="http://www.w3.org/2000/svg">
<path d="M36.2262 4.06037C35.8012 2.46197 34.5474 1.20308 32.9554 0.775966C30.0704 2.91467e-05 18.5 0 18.5 0C18.5 0 6.92963 2.91467e-05 4.0446 0.775966C2.45263 1.20308 1.19881 2.46197 0.77283 4.06037C1.24574e-05 6.95682 0 13.0003 0 13.0003C0 13.0003 1.24574e-05 19.0432 0.77283 21.9406C1.19881 23.538 2.45263 24.7969 4.0446 25.224C6.92963 26 18.5 26 18.5 26C18.5 26 30.0704 26 32.9554 25.224C34.5474 24.7969 35.8012 23.538 36.2262 21.9406C37 19.0432 37 13.0003 37 13.0003C37 13.0003 37 6.95682 36.2262 4.06037ZM14.7154 18.4874V7.51326L24.3862 13.0003L14.7154 18.4874Z" fill="white"/>
</svg>
