<svg width="21" height="20" viewBox="0 0 21 20" fill="none" xmlns="http://www.w3.org/2000/svg">
<path d="M16.4168 20.0086H16.7868C17.0968 19.9986 17.3868 19.8386 17.5668 19.5786L19.8368 16.3086C19.9868 16.0886 20.0468 15.8186 19.9968 15.5486C19.9723 15.417 19.9216 15.2916 19.8478 15.18C19.7739 15.0683 19.6784 14.9726 19.5668 14.8986L14.6568 11.6286C14.2468 11.3586 13.6968 11.4186 13.3668 11.7786L11.4868 13.8086C10.7268 13.3586 9.45683 12.5486 8.45683 11.5486C7.45683 10.5486 6.64683 9.2786 6.19683 8.5286L8.22683 6.6486C8.58683 6.3186 8.65683 5.7686 8.37683 5.3586L5.10683 0.448597C4.95683 0.228597 4.72683 0.0685966 4.46683 0.0185966C4.19683 -0.0314034 3.92683 0.0185967 3.70683 0.178597L0.436826 2.4386C0.176826 2.6186 0.0168259 2.9086 0.00682586 3.2186C-0.0231741 3.9286 -0.153174 10.2586 4.79683 15.1986C9.25683 19.6586 14.8368 19.9986 16.4168 19.9986V20.0086Z" fill="#FF5658"/>
</svg>
