<svg width="16" height="16" viewBox="0 0 16 16" fill="none" xmlns="http://www.w3.org/2000/svg">
<path d="M12.2733 14.6667H12.52C12.7266 14.66 12.92 14.5533 13.04 14.38L14.5533 12.2C14.6533 12.0533 14.6933 11.8733 14.66 11.6933C14.6436 11.6056 14.6098 11.522 14.5606 11.4476C14.5113 11.3732 14.4476 11.3094 14.3733 11.26L11.1 9.08C10.8266 8.9 10.46 8.94 10.24 9.18L8.98662 10.5333C8.47995 10.2333 7.63329 9.69334 6.96662 9.02667C6.29995 8.36 5.75995 7.51334 5.45995 7.01334L6.81329 5.76C7.05329 5.54 7.09995 5.17334 6.91329 4.9L4.73329 1.62667C4.63329 1.48 4.47995 1.37334 4.30662 1.34C4.12662 1.30667 3.94662 1.34 3.79995 1.44667L1.61995 2.95334C1.44662 3.07334 1.33995 3.26667 1.33329 3.47334C1.31329 3.94667 1.22662 8.16667 4.52662 11.46C7.49995 14.4333 11.22 14.66 12.2733 14.66V14.6667Z" fill="#FF5658"/>
</svg>
