<svg width="24" height="24" viewBox="0 0 24 24" fill="none" xmlns="http://www.w3.org/2000/svg">
<path d="M6.7792 0.0812449C5.54801 0.139404 4.70722 0.335805 3.97209 0.624586C3.2114 0.921015 2.56663 1.31888 1.92507 1.96265C1.28352 2.60642 0.888477 3.25158 0.594062 4.01348C0.309105 4.75002 0.116118 5.59162 0.0617827 6.82341C0.00744775 8.05521 -0.00462423 8.45125 0.00141299 11.5936C0.00745021 14.736 0.021335 15.1299 0.0811035 16.3643C0.139866 17.5953 0.335669 18.4358 0.62445 19.171C0.92128 19.9317 1.31874 20.5762 1.96271 21.218C2.60668 21.8598 3.25145 22.2538 4.01536 22.5488C4.75129 22.8331 5.59309 23.0272 6.82468 23.0811C8.05628 23.135 8.45272 23.1475 11.5943 23.1415C14.7357 23.1354 15.1313 23.1215 16.3655 23.063C17.5997 23.0044 18.4359 22.8072 19.1714 22.5198C19.9321 22.2222 20.5771 21.8256 21.2184 21.1812C21.8598 20.5368 22.2546 19.8912 22.5486 19.1289C22.8338 18.393 23.0274 17.5512 23.0809 16.3206C23.1348 15.0854 23.1475 14.6911 23.1415 11.5492C23.1354 8.40719 23.1213 8.01335 23.0628 6.77934C23.0042 5.54533 22.8082 4.70736 22.5196 3.97162C22.2222 3.21093 21.8254 2.56676 21.1816 1.9246C20.5378 1.28244 19.8916 0.887805 19.1295 0.594395C18.3932 0.309438 17.5518 0.115236 16.3202 0.0621083C15.0886 0.00877937 14.6922 -0.00470419 11.5496 0.00133305C8.40663 0.00757153 8.01341 0.0208725 6.7792 0.0812449ZM6.91423 20.9996C5.78607 20.9505 5.1735 20.7632 4.76518 20.6062C4.22465 20.3979 3.83947 20.1462 3.43256 19.7433C3.02566 19.3404 2.77572 18.9538 2.56462 18.4145C2.40604 18.0062 2.21506 17.3944 2.16234 16.2661C2.10498 15.0467 2.0929 14.6805 2.08626 11.5912C2.07962 8.50177 2.0913 8.13612 2.14483 6.91639C2.19292 5.78904 2.38148 5.17586 2.53825 4.76774C2.74654 4.2264 2.99748 3.84204 3.40117 3.43533C3.80506 3.02862 4.19044 2.77826 4.73037 2.56716C5.13808 2.40798 5.75005 2.21863 6.87781 2.1649C8.09813 2.10714 8.46379 2.09546 11.5526 2.08882C14.6415 2.08218 15.0081 2.09365 16.2289 2.14738C17.3562 2.19648 17.9696 2.38323 18.3773 2.5408C18.9182 2.74908 19.303 2.99924 19.7097 3.40374C20.1164 3.80823 20.367 4.19219 20.5781 4.73333C20.7375 5.14003 20.9268 5.7516 20.9801 6.87996C21.0383 8.10029 21.0514 8.46614 21.057 11.5548C21.0627 14.6434 21.0518 15.0103 20.9983 16.2296C20.949 17.3578 20.762 17.9706 20.6048 18.3793C20.3966 18.9196 20.1454 19.305 19.7413 19.7115C19.3372 20.118 18.9525 20.3684 18.4123 20.5795C18.005 20.7385 17.3924 20.9282 16.2655 20.982C15.0452 21.0393 14.6795 21.0514 11.5895 21.058C8.4994 21.0647 8.13455 21.0524 6.91423 20.9996ZM16.3476 5.38716C16.3488 6.15409 16.9716 6.77473 17.7384 6.77352C18.5053 6.77231 19.1259 6.14947 19.1247 5.38274C19.1235 4.61581 18.5007 3.99518 17.7337 3.99638C16.967 3.99779 16.3462 4.62043 16.3476 5.38716ZM5.63012 11.5832C5.63656 14.8648 8.30178 17.5192 11.5826 17.513C14.8636 17.5067 17.5196 14.8419 17.5134 11.56C17.5071 8.27839 14.8413 5.62341 11.5599 5.62985C8.27845 5.63629 5.62388 8.30193 5.63012 11.5832ZM7.71437 11.5789C7.71014 9.4486 9.43356 7.71834 11.5639 7.71411C13.6942 7.70989 15.4245 9.43352 15.4287 11.5637C15.4329 13.694 13.7093 15.4243 11.5792 15.4285C9.44906 15.4329 7.71879 13.7091 7.71437 11.5789Z" fill="white"/>
</svg>
