<svg width="21" height="16" viewBox="0 0 21 16" fill="none" xmlns="http://www.w3.org/2000/svg">
<path d="M17.325 0.188448C16.9692 -0.105102 16.4477 -0.0491876 16.1576 0.310761C15.8674 0.67071 15.9227 1.1984 16.2785 1.49195C18.1505 3.0296 19.3421 5.37101 19.3421 7.99898C19.3421 10.627 18.1505 12.9684 16.2785 14.5095C15.9227 14.8031 15.8709 15.3308 16.1576 15.6907C16.4442 16.0506 16.9692 16.1031 17.325 15.813C19.5666 13.9643 21 11.1512 21 7.99898C21 4.84681 19.5666 2.03013 17.325 0.188448ZM15.2354 2.79196C14.8796 2.49841 14.3581 2.55432 14.0679 2.91427C13.7778 3.27422 13.8331 3.80191 14.1888 4.09546C15.3113 5.01805 16.0263 6.4229 16.0263 7.99898C16.0263 9.57507 15.3113 10.9799 14.1888 11.906C13.8331 12.1995 13.7812 12.7272 14.0679 13.0872C14.3546 13.4471 14.8796 13.4996 15.2354 13.2095C16.7275 11.9794 17.6842 10.1028 17.6842 8.00248C17.6842 5.9022 16.7275 4.02557 15.2354 2.79545V2.79196ZM13.1457 5.39547C12.79 5.10192 12.2684 5.15784 11.9783 5.51778C11.6882 5.87773 11.7434 6.40542 12.0992 6.69897C12.4722 7.0065 12.7105 7.47479 12.7105 7.99898C12.7105 8.52318 12.4722 8.99146 12.0992 9.30249C11.7434 9.59604 11.6916 10.1237 11.9783 10.4837C12.265 10.8436 12.79 10.896 13.1457 10.606C13.8883 9.98744 14.3684 9.05087 14.3684 7.99898C14.3684 6.94709 13.8883 6.01053 13.1457 5.39547ZM1.65789 11.3538H3.31579L7.94753 15.5195C8.16859 15.7187 8.45181 15.827 8.74539 15.827C9.40855 15.827 9.94737 15.2818 9.94737 14.6109V1.38711C9.94737 0.71614 9.40855 0.170975 8.74539 0.170975C8.45181 0.170975 8.16859 0.279309 7.94753 0.478504L3.31579 4.64412H1.65789C0.742599 4.64412 0 5.39547 0 6.32155V9.67641C0 10.6025 0.742599 11.3538 1.65789 11.3538Z" fill="white"/>
</svg>
