<svg width="20" height="16" viewBox="0 0 20 16" fill="none" xmlns="http://www.w3.org/2000/svg">
<g clip-path="url(#clip0_113_253)">
<path d="M5.35313 3H7V6H3.47813L4.42812 3.62812C4.57812 3.25 4.94375 3 5.35313 3ZM8.5 6V3H11.0375C11.3406 3 11.6281 3.1375 11.8188 3.375L13.9187 6H8.5ZM16.5063 6.03125L13.3813 2.125C12.8125 1.4125 11.95 1 11.0375 1H5.35313C4.125 1 3.02187 1.74688 2.56875 2.88438L1.26875 6.1375C0.525 6.43125 0 7.15312 0 8V11.5C0 12.0531 0.446875 12.5 1 12.5H2.04063C2.27813 13.9187 3.5125 15 5 15C6.4875 15 7.72187 13.9187 7.95937 12.5H12.0437C12.2812 13.9187 13.5156 15 15.0031 15C16.4906 15 17.725 13.9187 17.9625 12.5H19.0031C19.5562 12.5 20.0031 12.0531 20.0031 11.5V10C20.0031 7.9625 18.4781 6.28125 16.5094 6.03125H16.5063ZM13.5844 11.5C13.648 11.3118 13.7485 11.138 13.8798 10.9889C14.0112 10.8398 14.1709 10.7183 14.3496 10.6314C14.5283 10.5446 14.7226 10.4941 14.921 10.4829C15.1194 10.4717 15.318 10.5001 15.5054 10.5663C15.6927 10.6326 15.8651 10.7354 16.0123 10.8688C16.1596 11.0022 16.2789 11.1635 16.3633 11.3435C16.4477 11.5234 16.4955 11.7182 16.504 11.9168C16.5124 12.1153 16.4813 12.3136 16.4125 12.5C16.3488 12.6882 16.2484 12.862 16.117 13.0111C15.9857 13.1602 15.826 13.2817 15.6473 13.3686C15.4685 13.4554 15.2743 13.5059 15.0759 13.5171C14.8775 13.5283 14.6789 13.4999 14.4915 13.4337C14.3041 13.3674 14.1318 13.2646 13.9845 13.1312C13.8373 12.9978 13.7179 12.8365 13.6335 12.6565C13.5492 12.4766 13.5013 12.2818 13.4929 12.0832C13.4845 11.8847 13.5156 11.6864 13.5844 11.5ZM5 10.5C5.39782 10.5 5.77936 10.658 6.06066 10.9393C6.34196 11.2206 6.5 11.6022 6.5 12C6.5 12.3978 6.34196 12.7794 6.06066 13.0607C5.77936 13.342 5.39782 13.5 5 13.5C4.60218 13.5 4.22064 13.342 3.93934 13.0607C3.65804 12.7794 3.5 12.3978 3.5 12C3.5 11.6022 3.65804 11.2206 3.93934 10.9393C4.22064 10.658 4.60218 10.5 5 10.5Z" fill="white"/>
</g>
<defs>
<clipPath id="clip0_113_253">
<rect width="20" height="16" fill="white"/>
</clipPath>
</defs>
</svg>
