<svg width="20" height="20" viewBox="0 0 20 20" fill="none" xmlns="http://www.w3.org/2000/svg">
<path d="M11.9316 18.0699C12.2203 18.355 12.1733 18.855 11.8144 19.0466C8.77873 20.6795 4.91108 20.215 2.34788 17.6518C-0.214692 15.0892 -0.679847 11.2251 0.953665 8.18574C1.14472 7.83047 1.64468 7.78348 1.93034 8.06856L6.4933 12.6316L7.56338 11.5615C7.5365 11.4595 7.50111 11.3661 7.50111 11.2562C7.50112 11.009 7.57445 10.7673 7.71182 10.5617C7.84919 10.3561 8.04444 10.1959 8.27288 10.1013C8.50132 10.0067 8.75268 9.98191 8.99518 10.0302C9.23769 10.0784 9.46044 10.1975 9.63527 10.3723C9.81011 10.5471 9.92917 10.7699 9.9774 11.0124C10.0256 11.2549 10.0009 11.5063 9.90625 11.7347C9.81163 11.9631 9.6514 12.1584 9.44581 12.2957C9.24022 12.4331 8.99852 12.5064 8.75127 12.5064C8.64201 12.5064 8.54799 12.4716 8.44666 12.4442L7.37596 13.5149L11.9316 18.0699ZM19.999 11.8386C20.0038 11.9238 19.9912 12.009 19.962 12.0892C19.9327 12.1693 19.8875 12.2427 19.829 12.3048C19.7706 12.367 19.7001 12.4166 19.6218 12.4506C19.5436 12.4846 19.4593 12.5024 19.3739 12.5028H18.1195C17.9609 12.5023 17.8085 12.4414 17.6932 12.3326C17.5778 12.2237 17.5083 12.075 17.4987 11.9167C17.2057 6.85743 13.1427 2.75529 8.08709 2.48181C7.92828 2.47336 7.77882 2.40409 7.66971 2.2884C7.5606 2.1727 7.50022 2.01944 7.50107 1.86041V0.626117C7.50142 0.540787 7.51913 0.456421 7.55314 0.378158C7.58714 0.299894 7.63672 0.229372 7.69885 0.170888C7.76099 0.112403 7.83438 0.0671796 7.91456 0.0379727C7.99473 0.00876585 8.08002 -0.00381326 8.16521 0.00100168C14.5412 0.336782 19.6669 5.46259 19.999 11.8386ZM16.2486 11.827C16.2544 11.9133 16.2424 11.9999 16.2135 12.0815C16.1845 12.163 16.1391 12.2378 16.0802 12.3011C16.0212 12.3644 15.9498 12.415 15.8706 12.4497C15.7913 12.4844 15.7057 12.5024 15.6192 12.5028H14.3611C14.2046 12.5016 14.0543 12.4421 13.9394 12.3358C13.8246 12.2296 13.7536 12.0842 13.7403 11.9283C13.4705 8.92012 11.0794 6.50219 8.0792 6.25555C7.92221 6.2443 7.77531 6.17401 7.66805 6.05883C7.5608 5.94365 7.50113 5.79212 7.50107 5.63474V4.38029C7.50105 4.29367 7.51888 4.20798 7.55345 4.12857C7.58803 4.04915 7.6386 3.97771 7.70201 3.91871C7.76542 3.85971 7.84032 3.81442 7.92201 3.78566C8.00371 3.75689 8.09046 3.74528 8.17685 3.75154C12.4785 4.08361 15.9201 7.52524 16.2486 11.827Z" fill="white"/>
</svg>
