<svg width="18" height="20" viewBox="0 0 18 20" fill="none" xmlns="http://www.w3.org/2000/svg">
<g clip-path="url(#clip0_113_328)">
<path d="M8.35714 0H13.3433C13.8536 0 14.3438 0.199219 14.7054 0.550781L17.4335 3.20312C17.7951 3.55469 18 4.03125 18 4.52734V13.125C18 14.1602 17.1362 15 16.0714 15H8.35714C7.29241 15 6.42857 14.1602 6.42857 13.125V1.875C6.42857 0.839844 7.29241 0 8.35714 0ZM1.92857 5H5.14286V7.5H2.57143V17.5H10.2857V16.25H12.8571V18.125C12.8571 19.1602 11.9933 20 10.9286 20H1.92857C0.863839 20 0 19.1602 0 18.125V6.875C0 5.83984 0.863839 5 1.92857 5Z" fill="white"/>
</g>
<defs>
<clipPath id="clip0_113_328">
<rect width="18" height="20" fill="white"/>
</clipPath>
</defs>
</svg>
