<svg width="24" height="17" viewBox="0 0 24 17" fill="none" xmlns="http://www.w3.org/2000/svg">
<path d="M2.4 2.4C2.4 1.07625 3.47625 0 4.8 0H19.2C20.5238 0 21.6 1.07625 21.6 2.4V11.4H19.2V2.4H4.8V11.4H2.4V2.4ZM0 13.92C0 13.5225 0.3225 13.2 0.72 13.2H23.28C23.6775 13.2 24 13.5225 24 13.92C24 15.51 22.71 16.8 21.12 16.8H2.88C1.29 16.8 0 15.51 0 13.92ZM10.5375 6.6375L9.375 7.8L10.5375 8.9625C10.89 9.315 10.89 9.885 10.5375 10.2337C10.185 10.5825 9.615 10.5862 9.26625 10.2337L7.46625 8.43375C7.11375 8.08125 7.11375 7.51125 7.46625 7.1625L9.26625 5.3625C9.61875 5.01 10.1888 5.01 10.5375 5.3625C10.8863 5.715 10.89 6.285 10.5375 6.63375V6.6375ZM14.7375 5.3625L16.5375 7.1625C16.89 7.515 16.89 8.085 16.5375 8.43375L14.7375 10.2337C14.385 10.5862 13.815 10.5862 13.4663 10.2337C13.1175 9.88125 13.1138 9.31125 13.4663 8.9625L14.6288 7.8L13.4663 6.6375C13.1138 6.285 13.1138 5.715 13.4663 5.36625C13.8188 5.0175 14.3888 5.01375 14.7375 5.36625V5.3625Z" fill="white"/>
</svg>
