<svg width="20" height="20" viewBox="0 0 20 20" fill="none" xmlns="http://www.w3.org/2000/svg">
<path d="M14.25 5.25H5.25V14.25H14.25V5.25Z" fill="white"/>
<path fill-rule="evenodd" clip-rule="evenodd" d="M6 0C6.19891 0 6.38968 0.0790175 6.53033 0.21967C6.67098 0.360322 6.75 0.551088 6.75 0.75V1.5H9V0.75C9 0.551088 9.07902 0.360322 9.21967 0.21967C9.36032 0.0790175 9.55109 0 9.75 0C9.94891 0 10.1397 0.0790175 10.2803 0.21967C10.421 0.360322 10.5 0.551088 10.5 0.75V1.5H12.75V0.75C12.75 0.551088 12.829 0.360322 12.9697 0.21967C13.1103 0.0790175 13.3011 0 13.5 0C13.6989 0 13.8897 0.0790175 14.0303 0.21967C14.171 0.360322 14.25 0.551088 14.25 0.75V1.5H15C15.7956 1.5 16.5587 1.81607 17.1213 2.37868C17.6839 2.94129 18 3.70435 18 4.5V5.25H18.75C18.9489 5.25 19.1397 5.32902 19.2803 5.46967C19.421 5.61032 19.5 5.80109 19.5 6C19.5 6.19891 19.421 6.38968 19.2803 6.53033C19.1397 6.67098 18.9489 6.75 18.75 6.75H18V9H18.75C18.9489 9 19.1397 9.07902 19.2803 9.21967C19.421 9.36032 19.5 9.55109 19.5 9.75C19.5 9.94891 19.421 10.1397 19.2803 10.2803C19.1397 10.421 18.9489 10.5 18.75 10.5H18V12.75H18.75C18.9489 12.75 19.1397 12.829 19.2803 12.9697C19.421 13.1103 19.5 13.3011 19.5 13.5C19.5 13.6989 19.421 13.8897 19.2803 14.0303C19.1397 14.171 18.9489 14.25 18.75 14.25H18V15C18 15.7956 17.6839 16.5587 17.1213 17.1213C16.5587 17.6839 15.7956 18 15 18H14.25V18.75C14.25 18.9489 14.171 19.1397 14.0303 19.2803C13.8897 19.421 13.6989 19.5 13.5 19.5C13.3011 19.5 13.1103 19.421 12.9697 19.2803C12.829 19.1397 12.75 18.9489 12.75 18.75V18H10.5V18.75C10.5 18.9489 10.421 19.1397 10.2803 19.2803C10.1397 19.421 9.94891 19.5 9.75 19.5C9.55109 19.5 9.36032 19.421 9.21967 19.2803C9.07902 19.1397 9 18.9489 9 18.75V18H6.75V18.75C6.75 18.9489 6.67098 19.1397 6.53033 19.2803C6.38968 19.421 6.19891 19.5 6 19.5C5.80109 19.5 5.61032 19.421 5.46967 19.2803C5.32902 19.1397 5.25 18.9489 5.25 18.75V18H4.5C3.70435 18 2.94129 17.6839 2.37868 17.1213C1.81607 16.5587 1.5 15.7956 1.5 15V14.25H0.75C0.551088 14.25 0.360322 14.171 0.21967 14.0303C0.0790175 13.8897 0 13.6989 0 13.5C0 13.3011 0.0790175 13.1103 0.21967 12.9697C0.360322 12.829 0.551088 12.75 0.75 12.75H1.5V10.5H0.75C0.551088 10.5 0.360322 10.421 0.21967 10.2803C0.0790175 10.1397 0 9.94891 0 9.75C0 9.55109 0.0790175 9.36032 0.21967 9.21967C0.360322 9.07902 0.551088 9 0.75 9H1.5V6.75H0.75C0.551088 6.75 0.360322 6.67098 0.21967 6.53033C0.0790175 6.38968 0 6.19891 0 6C0 5.80109 0.0790175 5.61032 0.21967 5.46967C0.360322 5.32902 0.551088 5.25 0.75 5.25H1.5V4.5C1.5 3.70435 1.81607 2.94129 2.37868 2.37868C2.94129 1.81607 3.70435 1.5 4.5 1.5H5.25V0.75C5.25 0.551088 5.32902 0.360322 5.46967 0.21967C5.61032 0.0790175 5.80109 0 6 0ZM3.75 4.5C3.75 4.30109 3.82902 4.11032 3.96967 3.96967C4.11032 3.82902 4.30109 3.75 4.5 3.75H15C15.1989 3.75 15.3897 3.82902 15.5303 3.96967C15.671 4.11032 15.75 4.30109 15.75 4.5V15C15.75 15.1989 15.671 15.3897 15.5303 15.5303C15.3897 15.671 15.1989 15.75 15 15.75H4.5C4.30109 15.75 4.11032 15.671 3.96967 15.5303C3.82902 15.3897 3.75 15.1989 3.75 15V4.5Z" fill="white"/>
</svg>
