<svg width="18" height="20" viewBox="0 0 18 20" fill="none" xmlns="http://www.w3.org/2000/svg">
<path d="M8.99627 0C9.16877 0 9.34127 0.0375001 9.49877 0.10875L16.5638 3.105C17.3888 3.45375 18.0038 4.2675 18 5.25C17.9813 8.97 16.4513 15.7763 9.99002 18.87C9.36377 19.17 8.63627 19.17 8.01002 18.87C1.54502 15.7763 0.0187671 8.97 1.70568e-05 5.25C-0.00373294 4.2675 0.611267 3.45375 1.43627 3.105L8.49752 0.10875C8.65502 0.0375001 8.82377 0 8.99627 0ZM8.99627 2.505V16.6838C14.1713 14.1788 15.5625 8.62875 15.5963 5.30625L8.99627 2.50875V2.505Z" fill="white"/>
</svg>
