<svg width="21" height="16" viewBox="0 0 21 16" fill="none" xmlns="http://www.w3.org/2000/svg">
<path d="M12.9828 0.0971701C13.2553 0.218559 13.4684 0.443184 13.5753 0.721656C13.6821 1.00013 13.6741 1.30965 13.5528 1.58217L7.5528 15.0822C7.49479 15.2202 7.40981 15.3453 7.30284 15.4501C7.19587 15.5548 7.06906 15.6372 6.92984 15.6923C6.79063 15.7474 6.64181 15.7742 6.49211 15.7711C6.34241 15.768 6.19484 15.735 6.05805 15.6741C5.92127 15.6132 5.79801 15.5256 5.69552 15.4164C5.59303 15.3072 5.51336 15.1787 5.46118 15.0384C5.409 14.898 5.38536 14.7487 5.39165 14.5991C5.39794 14.4495 5.43403 14.3026 5.4978 14.1672L11.4978 0.66717C11.6192 0.394705 11.8438 0.181602 12.1223 0.0747132C12.4008 -0.0321753 12.7103 -0.0240977 12.9828 0.0971701ZM4.8723 3.65967C5.09508 3.85771 5.23017 4.13607 5.24788 4.43362C5.2656 4.73117 5.16451 5.02359 4.9668 5.24667L2.6298 7.87467L4.9668 10.5027C5.16492 10.7259 5.26626 11.0186 5.24854 11.3165C5.23082 11.6144 5.09548 11.8931 4.8723 12.0912C4.76179 12.1893 4.63305 12.2646 4.49341 12.313C4.35378 12.3613 4.20599 12.3817 4.05848 12.3729C3.76058 12.3552 3.48192 12.2199 3.2838 11.9967L0.283801 8.62167C0.100975 8.41579 0 8.15001 0 7.87467C0 7.59933 0.100975 7.33355 0.283801 7.12767L3.2838 3.75267C3.38203 3.6418 3.50118 3.55142 3.63442 3.48672C3.76766 3.42201 3.91237 3.38425 4.06024 3.37561C4.2081 3.36697 4.35622 3.38762 4.49609 3.43636C4.63596 3.48511 4.76483 3.561 4.8753 3.65967M15.3813 3.65967C15.4917 3.56145 15.6204 3.48595 15.76 3.43747C15.8995 3.38899 16.0473 3.36848 16.1948 3.37711C16.3423 3.38575 16.4867 3.42336 16.6197 3.4878C16.7526 3.55224 16.8716 3.64224 16.9698 3.75267L19.9698 7.12767C20.1526 7.33355 20.2536 7.59933 20.2536 7.87467C20.2536 8.15001 20.1526 8.41579 19.9698 8.62167L16.9698 11.9967C16.7717 12.2199 16.493 12.3552 16.1951 12.3729C15.8972 12.3906 15.6045 12.2893 15.3813 12.0912C15.1581 11.8931 15.0228 11.6144 15.0051 11.3165C14.9873 11.0186 15.0887 10.7259 15.2868 10.5027L17.6193 7.87467L15.2853 5.24667C15.0876 5.02359 14.9865 4.73117 15.0042 4.43362C15.0219 4.13607 15.1585 3.85771 15.3813 3.65967Z" fill="white"/>
</svg>
