<svg width="20" height="20" viewBox="0 0 20 20" fill="none" xmlns="http://www.w3.org/2000/svg">
<path d="M0 10C0 4.47656 4.47656 0 10 0C15.5234 0 20 4.47656 20 10C20 15.5234 15.5234 20 10 20C4.47656 20 0 15.5234 0 10ZM11.25 3.75C11.25 3.05859 10.6914 2.5 10 2.5C9.30859 2.5 8.75 3.05859 8.75 3.75C8.75 4.44141 9.30859 5 10 5C10.6914 5 11.25 4.44141 11.25 3.75ZM10 16.25C11.3789 16.25 12.5 15.1289 12.5 13.75C12.5 13.1172 12.2656 12.5352 11.875 12.0977L14.5898 6.67188C14.8203 6.20703 14.6328 5.64453 14.1719 5.41406C13.7109 5.18359 13.1445 5.37109 12.9141 5.83203L10.1992 11.2578C10.1328 11.2539 10.0664 11.25 10 11.25C8.62109 11.25 7.5 12.3711 7.5 13.75C7.5 15.1289 8.62109 16.25 10 16.25ZM6.875 5.625C6.875 4.93359 6.31641 4.375 5.625 4.375C4.93359 4.375 4.375 4.93359 4.375 5.625C4.375 6.31641 4.93359 6.875 5.625 6.875C6.31641 6.875 6.875 6.31641 6.875 5.625ZM3.75 11.25C4.44141 11.25 5 10.6914 5 10C5 9.30859 4.44141 8.75 3.75 8.75C3.05859 8.75 2.5 9.30859 2.5 10C2.5 10.6914 3.05859 11.25 3.75 11.25ZM17.5 10C17.5 9.30859 16.9414 8.75 16.25 8.75C15.5586 8.75 15 9.30859 15 10C15 10.6914 15.5586 11.25 16.25 11.25C16.9414 11.25 17.5 10.6914 17.5 10Z" fill="white"/>
</svg>
