<svg width="24" height="24" viewBox="0 0 24 24" fill="none" xmlns="http://www.w3.org/2000/svg">
<g clip-path="url(#clip0_156_475)">
<path d="M7.5 15H8.0625V15.75C8.0625 16.1644 8.39812 16.5 8.8125 16.5H10.6875C11.1019 16.5 11.4375 16.1644 11.4375 15.75V15H12C12.8283 15 13.5 14.3283 13.5 13.5V3C13.5 2.17172 12.8283 1.5 12 1.5V0.75C12 0.335625 11.6644 0 11.25 0H8.25C7.83563 0 7.5 0.335625 7.5 0.75V1.5C6.67172 1.5 6 2.17172 6 3V13.5C6 14.3283 6.67172 15 7.5 15ZM21.75 21H21.6895C23.1206 19.4058 24 17.3062 24 15C24 10.0369 19.9631 6 15 6V9C18.3084 9 21 11.6916 21 15C21 18.3084 18.3084 21 15 21H2.25C1.00734 21 0 22.0073 0 23.25C0 23.6644 0.335625 24 0.75 24H23.25C23.6644 24 24 23.6644 24 23.25C24 22.0073 22.9927 21 21.75 21ZM4.875 19.5H14.625C14.8322 19.5 15 19.3322 15 19.125V18.375C15 18.1678 14.8322 18 14.625 18H4.875C4.66781 18 4.5 18.1678 4.5 18.375V19.125C4.5 19.3322 4.66781 19.5 4.875 19.5Z" fill="#A29898"/>
</g>
<defs>
<clipPath id="clip0_156_475">
<rect width="24" height="24" fill="white"/>
</clipPath>
</defs>
</svg>
