<svg width="24" height="24" viewBox="0 0 24 24" fill="none" xmlns="http://www.w3.org/2000/svg">
<g clip-path="url(#clip0_156_169)">
<g clip-path="url(#clip1_156_169)">
<path d="M9.89065 0.34215C9.6094 0.046837 9.18752 -0.065663 8.79377 0.037462C8.40002 0.140587 8.09534 0.45465 7.99221 0.8484L7.25159 3.77809L4.34534 2.95777C3.95159 2.84527 3.52971 2.95777 3.24377 3.24371C2.95784 3.52965 2.84534 3.95152 2.95784 4.34527L3.77815 7.25152L0.848461 7.99684C0.454711 8.09527 0.145336 8.40465 0.0375231 8.7984C-0.0702894 9.19215 0.0468981 9.60934 0.342211 9.89059L2.50784 12L0.342211 14.1093C0.0468981 14.3906 -0.0656019 14.8125 0.0375231 15.2062C0.140648 15.6 0.454711 15.9046 0.848461 16.0078L3.77815 16.7484L2.95784 19.6546C2.84534 20.0484 2.95784 20.4703 3.24377 20.7562C3.52971 21.0421 3.95159 21.1546 4.34534 21.0421L7.25159 20.2218L7.99221 23.1515C8.09065 23.5453 8.40002 23.8547 8.79377 23.9625C9.18752 24.0703 9.60471 23.9531 9.89065 23.6625L12 21.4968L14.1094 23.6625C14.3953 23.9531 14.8125 24.0703 15.2063 23.9625C15.6 23.8547 15.9047 23.5453 16.0078 23.1515L16.7485 20.2218L19.6547 21.0421C20.0485 21.1546 20.4703 21.0421 20.7563 20.7562C21.0422 20.4703 21.1547 20.0484 21.0422 19.6546L20.2219 16.7484L23.1516 16.0078C23.5453 15.9093 23.8547 15.6 23.9625 15.2062C24.0703 14.8125 23.9531 14.3906 23.6625 14.1093L21.4969 12L23.6625 9.89059C23.9531 9.60465 24.0703 9.18746 23.9625 8.79371C23.8547 8.39996 23.5453 8.09527 23.1516 7.99215L20.2219 7.25152L21.0422 4.34527C21.1547 3.95152 21.0422 3.52965 20.7563 3.24371C20.4703 2.95777 20.0485 2.84527 19.6547 2.95777L16.7485 3.77809L16.0031 0.8484C15.9047 0.45465 15.5953 0.145275 15.2016 0.037462C14.8078 -0.0703505 14.3906 0.046837 14.1094 0.34215L12 2.50777L9.89065 0.34215Z" fill="#A29898"/>
</g>
</g>
<defs>
<clipPath id="clip0_156_169">
<rect width="24" height="24" fill="white"/>
</clipPath>
<clipPath id="clip1_156_169">
<rect width="24" height="24" fill="white"/>
</clipPath>
</defs>
</svg>
