<svg width="24" height="24" viewBox="0 0 24 24" fill="none" xmlns="http://www.w3.org/2000/svg">
<path d="M6.60004 3.29688C6.35254 3.29688 6.13504 3.44531 6.04129 3.67168L4.93879 6.41777L2.08504 5.55684C1.84879 5.48633 1.59379 5.56426 1.44004 5.75352C1.28629 5.94277 1.26754 6.20625 1.38754 6.41777L2.86879 8.98203L0.408789 10.6594C0.206289 10.7967 0.108789 11.0416 0.165039 11.2791C0.221289 11.5166 0.416289 11.6947 0.656289 11.7318L3.60754 12.1846L3.39754 15.1348C3.37879 15.376 3.51379 15.6061 3.73504 15.71C3.95629 15.8139 4.21879 15.7768 4.40254 15.6135L5.72629 14.4074L6.08254 13.0938L6.47254 11.6613C6.77254 10.5518 7.61629 9.72793 8.64379 9.40137L10.1813 7.20449C10.605 6.59961 11.1713 6.13203 11.8125 5.82402C11.7975 5.80176 11.7825 5.77949 11.7638 5.75723C11.61 5.56797 11.355 5.49004 11.1188 5.56055L8.26129 6.41777L7.15879 3.67168C7.06504 3.44531 6.84754 3.29688 6.60004 3.29688ZM13.7888 8.99316L18.8738 10.3402C19.1175 10.407 19.2975 10.6148 19.3163 10.8672L19.4888 12.9639L11.9325 10.96L13.14 9.23066C13.2825 9.02285 13.545 8.93008 13.7888 8.99316ZM11.1675 7.87988L9.37129 10.4516C8.56129 10.5629 7.86004 11.1418 7.63504 11.973L7.24504 13.4055L6.62254 15.6988L6.31129 16.8455C6.13879 17.4801 6.52129 18.1295 7.15879 18.3002L7.74004 18.4523C8.38129 18.623 9.03754 18.2445 9.21004 17.6137L9.52129 16.467L18.795 18.9273L18.4838 20.074C18.3113 20.7086 18.6938 21.358 19.3313 21.5287L19.9125 21.6809C20.5538 21.8516 21.21 21.473 21.3825 20.8422L21.6938 19.6955L22.3125 17.3984L22.7025 15.966C22.9275 15.1348 22.6088 14.2887 21.9675 13.7877L21.7125 10.6705C21.6113 9.41992 20.7225 8.36973 19.5 8.04316L14.4075 6.69981C13.1813 6.37324 11.8838 6.84824 11.1638 7.87988H11.1675ZM10.53 12.7412C10.6443 12.7714 10.7514 12.8236 10.8453 12.8948C10.9391 12.966 11.0179 13.0548 11.0771 13.1561C11.1363 13.2574 11.1748 13.3692 11.1903 13.4852C11.2058 13.6013 11.1981 13.7192 11.1675 13.8322C11.137 13.9453 11.0843 14.0513 11.0123 14.1442C10.9404 14.2371 10.8507 14.315 10.7483 14.3736C10.6459 14.4322 10.5329 14.4702 10.4157 14.4856C10.2984 14.501 10.1793 14.4933 10.065 14.4631C9.8343 14.4021 9.63751 14.2528 9.51795 14.0482C9.3984 13.8436 9.36588 13.6004 9.42754 13.3721C9.4892 13.1437 9.64 12.949 9.84676 12.8307C10.0535 12.7124 10.2993 12.6802 10.53 12.7412ZM18.7013 15.8287C18.7266 15.7104 18.7759 15.5984 18.8464 15.4995C18.9169 15.4007 19.0069 15.3171 19.1111 15.2538C19.2153 15.1906 19.3314 15.149 19.4524 15.1316C19.5733 15.1142 19.6966 15.1213 19.8147 15.1526C19.9327 15.1839 20.0431 15.2387 20.1391 15.3136C20.2351 15.3885 20.3146 15.4819 20.3729 15.5882C20.4312 15.6946 20.467 15.8115 20.4781 15.932C20.4892 16.0524 20.4754 16.1739 20.4375 16.2889C20.407 16.4019 20.3543 16.5079 20.2823 16.6008C20.2104 16.6937 20.1207 16.7717 20.0183 16.8303C19.9159 16.8888 19.8029 16.9269 19.6857 16.9422C19.5684 16.9576 19.4493 16.9499 19.335 16.9197C19.2208 16.8895 19.1137 16.8373 19.0198 16.7661C18.9259 16.695 18.8471 16.6062 18.788 16.5049C18.7288 16.4036 18.6903 16.2917 18.6748 16.1757C18.6593 16.0597 18.667 15.9418 18.6975 15.8287H18.7013Z" fill="#A29898"/>
</svg>
