<svg width="24" height="24" viewBox="0 0 24 24" fill="none" xmlns="http://www.w3.org/2000/svg">
<g clip-path="url(#clip0_156_107)">
<path d="M8.4 2C9.67304 2 10.8939 2.52678 11.7941 3.46447C12.6943 4.40215 13.2 5.67392 13.2 7C13.2 8.32608 12.6943 9.59785 11.7941 10.5355C10.8939 11.4732 9.67304 12 8.4 12C7.12696 12 5.90606 11.4732 5.00589 10.5355C4.10571 9.59785 3.6 8.32608 3.6 7C3.6 5.67392 4.10571 4.40215 5.00589 3.46447C5.90606 2.52678 7.12696 2 8.4 2ZM6.68625 13.875H10.1138C10.5563 13.875 10.9913 13.9219 11.4075 14.0039C11.3288 14.7266 11.685 15.3945 12.225 15.7539C11.6025 16.168 11.2238 16.9883 11.475 17.8359C11.625 18.3398 11.8275 18.832 12.09 19.3047C12.3525 19.7773 12.66 20.207 13.005 20.5938C13.5938 21.2539 14.49 21.3125 15.15 20.9336V20.9688C15.15 21.3281 15.2513 21.6914 15.4462 21.9961L1.11375 22C0.49875 22 0 21.4805 0 20.8398C0 16.9922 2.9925 13.875 6.68625 13.875ZM16.35 10.5234C16.35 10.25 16.5188 10.0039 16.7738 9.94531C17.1675 9.85156 17.58 9.80078 18 9.80078C18.42 9.80078 18.8325 9.85156 19.2263 9.94531C19.4813 10.0039 19.65 10.25 19.65 10.5234V11.7188C19.9463 11.8516 20.2275 12.0195 20.4862 12.2188L21.42 11.6602C21.6488 11.5234 21.9338 11.5547 22.1138 11.7539C22.3988 12.0703 22.65 12.4258 22.8675 12.8164C23.085 13.207 23.2537 13.6133 23.3738 14.0273C23.4525 14.2891 23.3325 14.5625 23.1038 14.6992L22.1663 15.2617C22.1812 15.418 22.1925 15.5781 22.1925 15.7422C22.1925 15.9062 22.185 16.0625 22.1663 16.2227L23.1038 16.7852C23.3325 16.9219 23.4487 17.1953 23.3738 17.457C23.25 17.8711 23.0813 18.2773 22.8675 18.668C22.6538 19.0586 22.3988 19.4141 22.1138 19.7305C21.9338 19.9297 21.645 19.9609 21.42 19.8242L20.4862 19.2656C20.2275 19.4648 19.95 19.6328 19.65 19.7656V20.9609C19.65 21.2344 19.4813 21.4805 19.2263 21.5391C18.8325 21.6328 18.42 21.6836 18 21.6836C17.58 21.6836 17.1675 21.6328 16.7738 21.5391C16.5188 21.4805 16.35 21.2344 16.35 20.9609V19.7695C16.05 19.6367 15.765 19.4688 15.5063 19.2656L14.58 19.8242C14.3512 19.9609 14.0662 19.9297 13.8863 19.7305C13.6012 19.4141 13.35 19.0586 13.1325 18.668C12.915 18.2773 12.7463 17.8711 12.6263 17.457C12.5475 17.1953 12.6675 16.9219 12.8963 16.7852L13.8263 16.2266C13.8113 16.0664 13.8 15.9062 13.8 15.7422C13.8 15.5781 13.8075 15.418 13.8263 15.2578L12.8925 14.6953C12.6637 14.5586 12.5475 14.2852 12.6225 14.0234C12.7463 13.6094 12.9113 13.2031 13.1288 12.8125C13.3463 12.4219 13.5975 12.0664 13.8825 11.75C14.0625 11.5508 14.3475 11.5195 14.5763 11.6562L15.5063 12.2148C15.765 12.0156 16.05 11.8477 16.35 11.7109V10.5195V10.5234ZM19.8037 15.7383C19.8149 15.4846 19.7765 15.2312 19.691 14.9934C19.6054 14.7556 19.4745 14.5383 19.3061 14.3547C19.1377 14.1711 18.9353 14.0249 18.7111 13.9251C18.4869 13.8252 18.2457 13.7737 18.0019 13.7737C17.7581 13.7737 17.5168 13.8252 17.2927 13.9251C17.0685 14.0249 16.8661 14.1711 16.6977 14.3547C16.5293 14.5383 16.3983 14.7556 16.3128 14.9934C16.2273 15.2312 16.1889 15.4846 16.2 15.7383C16.1889 15.992 16.2273 16.2454 16.3128 16.4832C16.3983 16.721 16.5293 16.9383 16.6977 17.1219C16.8661 17.3055 17.0685 17.4517 17.2927 17.5515C17.5168 17.6514 17.7581 17.7028 18.0019 17.7028C18.2457 17.7028 18.4869 17.6514 18.7111 17.5515C18.9353 17.4517 19.1377 17.3055 19.3061 17.1219C19.4745 16.9383 19.6054 16.721 19.691 16.4832C19.7765 16.2454 19.8149 15.992 19.8037 15.7383Z" fill="#A29898"/>
</g>
<defs>
<clipPath id="clip0_156_107">
<rect width="24" height="20" fill="white" transform="translate(0 2)"/>
</clipPath>
</defs>
</svg>
