<svg width="24" height="24" viewBox="0 0 24 24" fill="none" xmlns="http://www.w3.org/2000/svg">
<g clip-path="url(#clip0_156_436)">
<g clip-path="url(#clip1_156_436)">
<path d="M6.66667 1C5.19583 1 4 2.2332 4 3.75V20.25C4 21.7668 5.19583 23 6.66667 23H17.3333C18.8042 23 20 21.7668 20 20.25V7.875H14.6667C13.9292 7.875 13.3333 7.26055 13.3333 6.5V1H6.66667ZM14.6667 1V6.5H20L14.6667 1ZM6.66667 4.4375C6.66667 4.05938 6.96667 3.75 7.33333 3.75H10C10.3667 3.75 10.6667 4.05938 10.6667 4.4375C10.6667 4.81562 10.3667 5.125 10 5.125H7.33333C6.96667 5.125 6.66667 4.81562 6.66667 4.4375ZM6.66667 7.1875C6.66667 6.80937 6.96667 6.5 7.33333 6.5H10C10.3667 6.5 10.6667 6.80937 10.6667 7.1875C10.6667 7.56563 10.3667 7.875 10 7.875H7.33333C6.96667 7.875 6.66667 7.56563 6.66667 7.1875ZM12 10.2812C12.3667 10.2812 12.6667 10.5906 12.6667 10.9688V11.7121C13.0208 11.7637 13.3625 11.8453 13.6708 11.9312C14.025 12.0301 14.2375 12.4039 14.1417 12.7734C14.0458 13.143 13.6833 13.3578 13.325 13.259C12.8625 13.1301 12.4083 13.0355 11.9875 13.0312C11.6375 13.027 11.2625 13.1086 11.0042 13.2676C10.7667 13.4137 10.6667 13.5812 10.6667 13.8176C10.6667 13.9766 10.7208 14.0969 10.9708 14.2516C11.2583 14.4277 11.6625 14.5566 12.1875 14.7199L12.2083 14.7242C12.6792 14.8703 13.2625 15.0508 13.7208 15.3516C14.225 15.6781 14.6542 16.198 14.6667 16.993C14.6792 17.8223 14.2667 18.4238 13.7125 18.7805C13.3917 18.9867 13.0292 19.107 12.6667 19.1715V19.9062C12.6667 20.2844 12.3667 20.5938 12 20.5938C11.6333 20.5938 11.3333 20.2844 11.3333 19.9062V19.1414C10.8667 19.0512 10.4292 18.8965 10.0458 18.759C9.95833 18.7289 9.87083 18.6988 9.7875 18.6688C9.4375 18.5484 9.25 18.1574 9.36667 17.8008C9.48333 17.4441 9.8625 17.2465 10.2083 17.3668C10.3125 17.4012 10.4083 17.4355 10.5042 17.4699C11.0708 17.6676 11.5292 17.8309 12.0167 17.8438C12.3958 17.8566 12.7625 17.7707 13.0042 17.616C13.2167 17.4785 13.3333 17.3023 13.3292 17.0145C13.325 16.8168 13.2542 16.6793 13.0083 16.516C12.725 16.3313 12.3208 16.198 11.8 16.0348L11.7333 16.0133C11.275 15.8715 10.7208 15.6996 10.2833 15.4246C9.78333 15.1152 9.34167 14.6125 9.3375 13.8219C9.33333 12.9883 9.7875 12.4125 10.3292 12.0816C10.6417 11.8926 10.9875 11.7723 11.3333 11.7078V10.9645C11.3333 10.5863 11.6333 10.277 12 10.277V10.2812Z" fill="#A29898"/>
</g>
</g>
<defs>
<clipPath id="clip0_156_436">
<rect width="24" height="24" fill="white"/>
</clipPath>
<clipPath id="clip1_156_436">
<rect width="16" height="22" fill="white" transform="translate(4 1)"/>
</clipPath>
</defs>
</svg>
