<svg width="24" height="24" viewBox="0 0 24 24" fill="none" xmlns="http://www.w3.org/2000/svg">
<g clip-path="url(#clip0_156_302)">
<g clip-path="url(#clip1_156_302)">
<path d="M9.46427 1C8.7136 1 8.10713 1.61445 8.10713 2.375C8.10713 3.13555 8.7136 3.75 9.46427 3.75H10.1428V5.22813C5.9145 5.88984 2.67856 9.59375 2.67856 14.0625C2.67856 18.9996 6.627 23 11.5 23C16.373 23 20.3214 18.9996 20.3214 14.0625C20.3214 12.2664 19.7998 10.5949 18.9007 9.19844L19.9228 8.16289C20.4529 7.62578 20.4529 6.75352 19.9228 6.21641C19.3926 5.6793 18.5317 5.6793 18.0015 6.21641L17.0855 7.14453C15.8937 6.15625 14.4475 5.47734 12.8571 5.22813V3.75H13.5357C14.2864 3.75 14.8928 3.13555 14.8928 2.375C14.8928 1.61445 14.2864 1 13.5357 1H9.46427ZM12.5178 9.25V14.75C12.5178 15.3215 12.064 15.7812 11.5 15.7812C10.9359 15.7812 10.4821 15.3215 10.4821 14.75V9.25C10.4821 8.67852 10.9359 8.21875 11.5 8.21875C12.064 8.21875 12.5178 8.67852 12.5178 9.25Z" fill="#A29898"/>
</g>
</g>
<defs>
<clipPath id="clip0_156_302">
<rect width="24" height="24" fill="white"/>
</clipPath>
<clipPath id="clip1_156_302">
<rect width="19" height="22" fill="white" transform="translate(2 1)"/>
</clipPath>
</defs>
</svg>
